<?xml version="1.0" encoding="UTF-8"?>
<!-- Generator: visioncortex VTracer 0.6.3 -->
<svg version="1.1" xmlns="http://www.w3.org/2000/svg" width="1280" height="720">
<path d="M0 0 C422.4 0 844.8 0 1280 0 C1280 237.6 1280 475.2 1280 720 C857.6 720 435.2 720 0 720 C0 482.4 0 244.8 0 0 Z " fill="#FAFCFC" transform="translate(0,0)"/>
<path d="M0 0 C1.15 -0 2.3 -0.01 3.49 -0.01 C5.41 -0.01 5.41 -0.01 7.36 -0.01 C8.72 -0.01 10.08 -0.01 11.45 -0.01 C15.2 -0.02 18.95 -0.02 22.71 -0.02 C26.75 -0.02 30.8 -0.02 34.84 -0.03 C42.77 -0.04 50.69 -0.04 58.62 -0.04 C65.06 -0.04 71.5 -0.04 77.94 -0.04 C96.18 -0.05 114.42 -0.06 132.66 -0.06 C134.13 -0.06 134.13 -0.06 135.64 -0.06 C136.62 -0.06 137.61 -0.06 138.62 -0.06 C154.6 -0.06 170.58 -0.07 186.56 -0.08 C202.94 -0.09 219.33 -0.1 235.72 -0.1 C244.93 -0.1 254.13 -0.1 263.34 -0.11 C271.18 -0.12 279.02 -0.12 286.85 -0.12 C290.86 -0.11 294.86 -0.11 298.86 -0.12 C302.52 -0.13 306.18 -0.13 309.84 -0.12 C311.8 -0.12 313.76 -0.13 315.72 -0.13 C316.87 -0.13 318.02 -0.12 319.21 -0.12 C320.71 -0.12 320.71 -0.12 322.24 -0.12 C324.61 0.13 324.61 0.13 326.61 2.13 C326.81 4.87 326.88 7.52 326.87 10.26 C326.87 11.11 326.87 11.96 326.88 12.84 C326.89 15.71 326.88 18.57 326.88 21.44 C326.88 23.49 326.89 25.54 326.9 27.59 C326.91 33.18 326.91 38.76 326.91 44.34 C326.91 49 326.91 53.66 326.92 58.33 C326.93 69.33 326.93 80.34 326.92 91.34 C326.92 102.68 326.93 114.02 326.95 125.37 C326.97 135.11 326.97 144.84 326.97 154.58 C326.97 160.4 326.97 166.21 326.98 172.03 C327 177.51 326.99 182.99 326.98 188.46 C326.98 190.47 326.98 192.47 326.99 194.48 C327.06 211.78 325.6 225.68 313.29 238.94 C303.87 247.75 294.31 250.43 281.77 250.4 C280.69 250.4 279.61 250.41 278.49 250.41 C274.88 250.42 271.26 250.42 267.64 250.42 C265.05 250.43 262.45 250.43 259.86 250.44 C253.54 250.46 247.23 250.46 240.91 250.46 C235.77 250.46 230.64 250.47 225.5 250.47 C210.93 250.49 196.36 250.5 181.79 250.5 C180.61 250.5 180.61 250.5 179.41 250.5 C178.23 250.5 178.23 250.5 177.03 250.5 C164.29 250.5 151.56 250.52 138.82 250.55 C125.73 250.57 112.64 250.59 99.56 250.59 C92.21 250.59 84.87 250.59 77.53 250.61 C70.62 250.63 63.71 250.63 56.81 250.62 C54.27 250.62 51.74 250.62 49.21 250.63 C45.75 250.65 42.28 250.64 38.82 250.62 C37.82 250.63 36.83 250.64 35.8 250.65 C23.79 250.54 13.22 244.98 4.31 237.1 C-4.2 228.27 -7.56 217.57 -7.51 205.56 C-7.52 204.25 -7.52 204.25 -7.52 202.92 C-7.52 199.98 -7.51 197.05 -7.51 194.12 C-7.51 192.02 -7.51 189.92 -7.51 187.82 C-7.51 182.12 -7.5 176.42 -7.5 170.71 C-7.49 164.75 -7.49 158.79 -7.49 152.83 C-7.48 141.55 -7.48 130.26 -7.47 118.97 C-7.46 106.13 -7.45 93.28 -7.44 80.43 C-7.43 53.99 -7.42 27.56 -7.39 1.13 C-4.79 -0.17 -2.91 0 0 0 Z " fill="#0E0C0F" transform="translate(492.3942413330078,146.87136554718018)"/>
<path d="M0 0 C2.71 3.2 2.39 6.73 3 11 C64.38 11.5 64.38 11.5 127 12 C127.33 9.03 127.66 6.06 128 3 C130 0 130 0 131.95 -0.51 C132.66 -0.57 133.38 -0.63 134.12 -0.69 C135.4 -0.79 136.68 -0.89 138 -1 C141.55 2.71 141.49 6.09 142 11 C143.53 11.03 143.53 11.03 145.1 11.06 C148.95 11.14 152.81 11.23 156.67 11.32 C158.32 11.36 159.98 11.39 161.64 11.42 C181.28 11.8 199.91 13.55 215 27.5 C224.28 37.22 230.39 49.31 231.54 62.7 C231.63 63.69 231.72 64.69 231.81 65.71 C231.87 66.46 231.93 67.22 232 68 C189.59 68.02 147.19 68.04 104.78 68.05 C99.78 68.05 94.78 68.05 89.78 68.05 C88.29 68.06 88.29 68.06 86.76 68.06 C70.62 68.06 54.48 68.07 38.34 68.08 C21.78 68.09 5.23 68.09 -11.32 68.09 C-21.54 68.1 -31.76 68.1 -41.98 68.11 C-48.98 68.11 -55.98 68.11 -62.98 68.11 C-67.03 68.11 -71.07 68.11 -75.11 68.12 C-78.81 68.12 -82.51 68.12 -86.2 68.12 C-88.19 68.12 -90.17 68.12 -92.16 68.13 C-93.9 68.13 -93.9 68.13 -95.68 68.12 C-97.19 68.12 -97.19 68.12 -98.74 68.12 C-101 68 -101 68 -102 67 C-102.38 52.7 -95.32 38.78 -85.94 28.31 C-69.86 13.32 -49.73 11.83 -28.94 11.94 C-27.29 11.94 -25.65 11.95 -24 11.95 C-20 11.96 -16 11.98 -12 12 C-12.03 10.9 -12.06 9.81 -12.09 8.68 C-11.99 4.72 -11.37 3.1 -9 0 C-5.82 -1.59 -3.38 -0.78 0 0 Z " fill="#0E0C0F" transform="translate(587,51)"/>
<path d="M0 0 C0.38 -1.23 0.38 -1.23 0.77 -2.48 C3 -5 3 -5 5.39 -5.43 C8.48 -5.53 11.53 -5.48 14.62 -5.38 C15.7 -5.36 16.78 -5.35 17.88 -5.33 C25.82 -5.18 25.82 -5.18 27 -4 C27.1 -1.38 27.13 1.21 27.11 3.82 C27.11 4.64 27.11 5.46 27.11 6.31 C27.11 9.03 27.11 11.75 27.1 14.47 C27.1 16.35 27.09 18.24 27.09 20.12 C27.09 25.08 27.08 30.04 27.07 35.01 C27.06 40.07 27.05 45.13 27.05 50.19 C27.04 60.13 27.02 70.06 27 80 C22.9 80.12 18.79 80.19 14.69 80.25 C13.52 80.28 12.35 80.32 11.15 80.35 C9.47 80.37 9.47 80.37 7.76 80.39 C6.21 80.42 6.21 80.42 4.64 80.45 C2 80 2 80 0.14 77.98 C-0.24 77.32 -0.61 76.67 -1 76 C-1.93 76.64 -2.86 77.28 -3.81 77.94 C-11.72 83.05 -22.93 82.16 -32 81 C-41.83 78.32 -50.96 72.41 -56.41 63.76 C-63.3 51.17 -64.87 37.76 -61.04 23.98 C-57.07 12.56 -50.72 4.21 -39.94 -1.38 C-26.49 -7.55 -12.75 -8.5 0 0 Z " fill="#0E0C0F" transform="translate(901,521)"/>
<path d="M0 0 C0.38 -1.23 0.38 -1.23 0.77 -2.48 C3 -5 3 -5 5.39 -5.43 C8.48 -5.53 11.53 -5.48 14.62 -5.38 C15.7 -5.36 16.78 -5.35 17.88 -5.33 C25.82 -5.18 25.82 -5.18 27 -4 C27.1 -1.38 27.13 1.21 27.11 3.82 C27.11 4.64 27.11 5.46 27.11 6.31 C27.11 9.03 27.11 11.75 27.1 14.47 C27.1 16.35 27.09 18.24 27.09 20.12 C27.09 25.08 27.08 30.04 27.07 35.01 C27.06 40.07 27.05 45.13 27.05 50.19 C27.04 60.13 27.02 70.06 27 80 C18.75 80 10.5 80 2 80 C1.34 78.68 0.68 77.36 0 76 C-0.52 76.35 -1.05 76.71 -1.58 77.07 C-7.82 80.96 -12.68 81.75 -19.94 81.56 C-20.86 81.57 -21.79 81.58 -22.74 81.6 C-34.3 81.47 -43.44 76.57 -52 69 C-59.92 60.19 -63.36 47.69 -63 36 C-61.32 22.59 -56.58 10.8 -46 2 C-31.48 -6.82 -14.93 -9.95 0 0 Z " fill="#0E0C0F" transform="translate(389,521)"/>
<path d="M0 0 C9.46 7.97 15.29 17.41 16.51 29.7 C16.99 35.39 17.27 40.4 16.14 46.05 C-3.33 46.05 -22.8 46.05 -42.86 46.05 C-40.38 51.55 -40.38 51.55 -36.42 54.86 C-35.84 55.26 -35.27 55.66 -34.67 56.07 C-26.92 60.26 -14.55 58.81 -6.36 56.55 C-4.85 56.07 -3.35 55.58 -1.86 55.05 C-1.23 55.69 -0.6 56.33 0.04 56.98 C0.86 57.81 1.68 58.64 2.52 59.49 C3.33 60.31 4.14 61.14 4.98 61.98 C6.97 64.09 6.97 64.09 9.14 65.05 C9.87 66.69 10.54 68.36 11.14 70.05 C9.68 71.17 8.19 72.27 6.71 73.36 C5.88 73.98 5.06 74.59 4.21 75.23 C-3.94 80.07 -11.75 80.6 -21.11 80.55 C-22.31 80.54 -23.51 80.54 -24.75 80.53 C-39.2 80.23 -50.49 75.72 -60.73 65.11 C-68.43 55.59 -70.87 44.05 -69.86 32.05 C-67.33 20.26 -62.59 9.52 -52.86 2.05 C-36.12 -7.87 -17.27 -11.79 0 0 Z " fill="#0E0C0F" transform="translate(542.85546875,521.94921875)"/>
<path d="M0 0 C8.23 5.28 11.92 13.69 14.36 22.83 C15.47 28.32 15.37 33.75 15.29 39.32 C15.29 40.55 15.28 41.78 15.28 43.04 C15.26 46.93 15.23 50.81 15.19 54.69 C15.17 57.34 15.16 59.98 15.15 62.63 C15.11 69.09 15.06 75.54 15 82 C10.85 82.03 6.71 82.05 2.56 82.06 C1.38 82.07 0.19 82.08 -1.03 82.09 C-2.15 82.09 -3.27 82.09 -4.43 82.1 C-6 82.11 -6 82.11 -7.59 82.11 C-10 82 -10 82 -11 81 C-11.1 79.38 -11.14 77.76 -11.14 76.13 C-11.15 75.09 -11.16 74.06 -11.16 72.99 C-11.17 71.85 -11.17 70.72 -11.18 69.55 C-11.2 67.17 -11.22 64.79 -11.25 62.41 C-11.28 58.65 -11.31 54.88 -11.33 51.12 C-11.34 47.49 -11.38 43.87 -11.43 40.24 C-11.42 39.12 -11.42 38 -11.42 36.85 C-11.52 30.38 -12.06 26.23 -16 21 C-19.7 18.85 -22.41 18.88 -26.5 19.62 C-31.56 20.99 -35.46 22.66 -38.44 27.19 C-39.7 29.43 -40.88 31.69 -42 34 C-42.33 34.66 -42.66 35.32 -43 36 C-43.12 37.48 -43.18 38.97 -43.21 40.45 C-43.23 41.37 -43.25 42.29 -43.27 43.24 C-43.29 44.73 -43.29 44.73 -43.32 46.26 C-43.34 47.28 -43.36 48.29 -43.38 49.34 C-43.44 52.6 -43.5 55.86 -43.56 59.12 C-43.61 61.33 -43.65 63.54 -43.69 65.75 C-43.8 71.16 -43.9 76.58 -44 82 C-47.98 82.03 -51.96 82.05 -55.94 82.06 C-57.64 82.08 -57.64 82.08 -59.38 82.09 C-60.46 82.09 -61.54 82.09 -62.65 82.1 C-64.15 82.11 -64.15 82.11 -65.68 82.11 C-68 82 -68 82 -69 81 C-69.1 78.41 -69.13 75.85 -69.11 73.27 C-69.11 72.46 -69.11 71.65 -69.11 70.81 C-69.11 68.12 -69.11 65.44 -69.1 62.75 C-69.1 60.89 -69.09 59.03 -69.09 57.17 C-69.09 52.26 -69.08 47.36 -69.07 42.46 C-69.06 37.46 -69.05 32.46 -69.05 27.46 C-69.04 17.64 -69.02 7.82 -69 -2 C-66.51 -3.24 -64.81 -3.13 -62.03 -3.13 C-61.05 -3.13 -60.06 -3.14 -59.05 -3.14 C-57.51 -3.13 -57.51 -3.13 -55.94 -3.12 C-54.91 -3.13 -53.87 -3.13 -52.81 -3.14 C-51.83 -3.14 -50.85 -3.13 -49.84 -3.13 C-48.48 -3.13 -48.48 -3.13 -47.1 -3.13 C-45 -3 -45 -3 -44 -2 C-43.79 -0.36 -43.63 1.29 -43.5 2.94 C-43.25 6.61 -43.25 6.61 -42 10 C-41.42 9.22 -41.42 9.22 -40.82 8.43 C-30.23 -4.77 -14.99 -7.28 0 0 Z " fill="#0E0C0F" transform="translate(643,519)"/>
<path d="M0 0 C1.26 3.59 1.02 4.95 -0.43 8.55 C-1.09 9.81 -1.76 11.07 -2.44 12.31 C-2.78 12.96 -3.11 13.6 -3.46 14.27 C-4.3 15.85 -5.15 17.43 -6 19 C-6.74 18.9 -7.47 18.81 -8.23 18.71 C-9.21 18.6 -10.18 18.49 -11.19 18.38 C-12.15 18.26 -13.11 18.14 -14.11 18.02 C-17.28 18 -19.19 18.55 -22 20 C-23.76 22.6 -24 23.81 -24 27 C-22.86 27.06 -21.71 27.12 -20.54 27.18 C-19.04 27.27 -17.55 27.35 -16.06 27.44 C-15.31 27.48 -14.55 27.52 -13.78 27.56 C-8.11 27.89 -8.11 27.89 -7 29 C-6.91 30.49 -6.89 31.98 -6.9 33.47 C-6.91 34.37 -6.91 35.27 -6.91 36.2 C-6.92 37.62 -6.92 37.62 -6.94 39.06 C-6.94 40.01 -6.95 40.96 -6.95 41.94 C-6.96 44.29 -6.98 46.65 -7 49 C-8.14 49.06 -9.29 49.12 -10.46 49.18 C-11.96 49.27 -13.45 49.35 -14.94 49.44 C-16.07 49.5 -16.07 49.5 -17.22 49.56 C-20.92 49.44 -20.92 49.44 -24 51 C-24.12 52.93 -24.18 54.87 -24.21 56.8 C-24.23 58.05 -24.25 59.29 -24.27 60.57 C-24.28 61.93 -24.3 63.3 -24.32 64.66 C-24.34 66.05 -24.36 67.44 -24.38 68.83 C-24.43 72.49 -24.48 76.15 -24.53 79.81 C-24.58 83.54 -24.64 87.28 -24.69 91.01 C-24.8 98.34 -24.9 105.67 -25 113 C-29.15 113.03 -33.29 113.05 -37.44 113.06 C-38.62 113.07 -39.81 113.08 -41.03 113.09 C-42.15 113.09 -43.27 113.09 -44.43 113.1 C-46 113.11 -46 113.11 -47.59 113.11 C-50 113 -50 113 -51 112 C-51.12 110.07 -51.18 108.13 -51.21 106.2 C-51.23 104.95 -51.25 103.71 -51.27 102.43 C-51.28 101.07 -51.3 99.7 -51.32 98.34 C-51.34 96.95 -51.36 95.56 -51.38 94.17 C-51.43 90.51 -51.48 86.85 -51.53 83.19 C-51.58 79.46 -51.64 75.72 -51.69 71.99 C-51.8 64.66 -51.9 57.33 -52 50 C-52.96 49.91 -52.96 49.91 -53.93 49.82 C-54.76 49.73 -55.59 49.65 -56.44 49.56 C-57.26 49.48 -58.08 49.4 -58.93 49.32 C-61 49 -61 49 -62 48 C-62.09 46.58 -62.11 45.16 -62.1 43.75 C-62.09 42.89 -62.09 42.04 -62.09 41.16 C-62.08 40.26 -62.07 39.36 -62.06 38.44 C-62.06 37.54 -62.05 36.63 -62.05 35.71 C-62.04 33.47 -62.02 31.24 -62 29 C-59.59 27.8 -58.05 27.9 -55.38 27.94 C-54.15 27.95 -54.15 27.95 -52.9 27.96 C-52.27 27.98 -51.65 27.99 -51 28 C-50.97 27.32 -50.95 26.64 -50.92 25.95 C-50.39 17.22 -48.96 9.44 -42.5 3.12 C-29.64 -6.93 -14.43 -5.29 0 0 Z " fill="#0E0C0F" transform="translate(1002,488)"/>
<path d="M0 0 C6.95 3.67 12.37 9.59 15 17 C12.42 18.37 9.84 19.72 7.25 21.06 C6.52 21.45 5.79 21.84 5.04 22.24 C4.33 22.61 3.62 22.97 2.89 23.35 C2.24 23.69 1.59 24.03 0.92 24.38 C-1.45 25.15 -2.68 24.83 -5 24 C-6.16 23.33 -7.3 22.64 -8.44 21.94 C-14.07 19.07 -19.84 19.13 -26 20 C-31.84 22.03 -35.03 25.8 -38.09 31.04 C-40.15 35.48 -40.67 40.15 -40 45 C-39.1 47.23 -38.07 49.25 -36.88 51.34 C-36 53 -36 53 -36 55 C-35.32 55.27 -34.64 55.54 -33.94 55.81 C-31 57 -31 57 -27.75 58.62 C-21.33 60.98 -15.3 60.79 -9 58 C-8.32 57.44 -7.64 56.89 -6.94 56.31 C-5 55 -5 55 -2.83 55.21 C0.73 56.2 3.95 57.68 7.25 59.31 C7.89 59.61 8.52 59.9 9.18 60.21 C11.74 61.47 13.66 62.46 15.19 64.92 C14.8 69.22 10.87 71.76 7.91 74.59 C-3.58 84.11 -16.72 84.17 -31 83 C-41.48 81.19 -51.75 74.35 -58.44 66.19 C-64.94 56.68 -67.49 44.63 -65.54 33.33 C-62.74 21.94 -57.88 11.24 -47.91 4.61 C-32.61 -4.33 -16.55 -7.51 0 0 Z " fill="#0E0C0F" transform="translate(300,519)"/>
<path d="M0 0 C5.2 4.36 9.4 8.79 11.69 15.25 C9.11 16.62 6.53 17.97 3.94 19.31 C3.21 19.7 2.48 20.09 1.73 20.49 C1.02 20.86 0.31 21.22 -0.42 21.6 C-1.07 21.94 -1.72 22.28 -2.39 22.63 C-4.76 23.4 -5.99 23.08 -8.31 22.25 C-9.47 21.58 -10.62 20.89 -11.75 20.19 C-17.38 17.32 -23.15 17.38 -29.31 18.25 C-35.15 20.28 -38.35 24.05 -41.4 29.29 C-43.46 33.73 -43.99 38.4 -43.31 43.25 C-42.42 45.48 -41.38 47.5 -40.19 49.59 C-39.31 51.25 -39.31 51.25 -39.31 53.25 C-38.63 53.52 -37.95 53.79 -37.25 54.06 C-34.31 55.25 -34.31 55.25 -31.06 56.88 C-24.64 59.23 -18.62 59.04 -12.31 56.25 C-11.63 55.69 -10.95 55.14 -10.25 54.56 C-8.31 53.25 -8.31 53.25 -6.12 53.48 C-2.71 54.42 0.31 55.8 3.5 57.31 C4.66 57.86 5.82 58.41 7.02 58.97 C8.34 59.6 8.34 59.6 9.69 60.25 C9.69 60.91 9.69 61.57 9.69 62.25 C10.35 62.25 11.01 62.25 11.69 62.25 C10.83 68.09 6 71.64 1.69 75.25 C-9.75 82.34 -23.28 83.15 -36.44 80.88 C-46.74 78.24 -57.08 71.26 -63.1 62.46 C-68.83 51.99 -71.05 40.53 -68.19 28.88 C-64.68 17.31 -59.6 7.76 -49 1.56 C-32.6 -6.95 -16.84 -8.89 0 0 Z " fill="#0E0C0F" transform="translate(740.3125,520.75)"/>
<path d="M0 0 C0.95 0 1.89 0.01 2.87 0.01 C3.9 0.01 4.92 0.02 5.98 0.02 C7.06 0.03 8.13 0.04 9.24 0.06 C10.32 0.06 11.4 0.06 12.51 0.06 C20.54 0.1 20.54 0.1 21.68 1.24 C21.83 2.58 21.93 3.93 21.99 5.28 C22.04 6.09 22.08 6.9 22.12 7.73 C22.16 8.58 22.2 9.43 22.24 10.31 C22.28 11.16 22.33 12.01 22.37 12.89 C22.48 15.01 22.58 17.13 22.68 19.24 C23.82 19.3 24.96 19.36 26.14 19.43 C27.63 19.51 29.12 19.6 30.61 19.68 C31.37 19.72 32.12 19.76 32.9 19.8 C38.56 20.13 38.56 20.13 39.68 21.24 C39.76 22.73 39.78 24.22 39.78 25.72 C39.77 26.61 39.77 27.51 39.77 28.44 C39.75 29.86 39.75 29.86 39.74 31.31 C39.74 32.25 39.73 33.2 39.73 34.18 C39.71 36.54 39.7 38.89 39.68 41.24 C33.74 41.57 27.8 41.9 21.68 42.24 C21.73 47.6 21.79 52.96 21.89 58.31 C21.91 60.14 21.93 61.96 21.95 63.78 C21.97 66.4 22.02 69.02 22.07 71.64 C22.07 72.45 22.07 73.27 22.07 74.11 C22.15 78.61 22.15 78.61 24.53 82.26 C27.43 83.58 29.7 83.5 32.86 83.37 C34.8 83.3 36.74 83.25 38.68 83.24 C39.68 84.24 39.68 84.24 39.79 86.19 C39.79 87.03 39.78 87.86 39.78 88.72 C39.77 89.61 39.77 90.51 39.77 91.44 C39.75 92.86 39.75 92.86 39.74 94.31 C39.74 95.25 39.73 96.2 39.73 97.18 C39.71 99.54 39.7 101.89 39.68 104.24 C34.73 106.86 29.76 106.57 24.3 106.56 C23.38 106.57 22.46 106.59 21.51 106.6 C15.76 106.61 11.79 105.9 6.68 103.24 C5.79 102.83 4.9 102.42 3.99 101.99 C-1.8 97.61 -3.21 91.05 -4.32 84.24 C-4.61 80.89 -4.69 77.54 -4.74 74.18 C-4.76 73.26 -4.78 72.34 -4.8 71.39 C-4.85 68.49 -4.9 65.58 -4.95 62.68 C-4.99 60.7 -5.02 58.72 -5.06 56.73 C-5.16 51.9 -5.24 47.07 -5.32 42.24 C-6.39 42.15 -6.39 42.15 -7.47 42.06 C-8.39 41.98 -9.31 41.89 -10.26 41.81 C-11.18 41.72 -12.09 41.64 -13.04 41.56 C-15.32 41.24 -15.32 41.24 -16.32 40.24 C-16.45 37.25 -16.51 34.3 -16.51 31.31 C-16.52 30.47 -16.53 29.63 -16.55 28.77 C-16.55 27.97 -16.55 27.17 -16.55 26.34 C-16.56 25.6 -16.56 24.87 -16.57 24.11 C-16.32 22.24 -16.32 22.24 -14.32 20.24 C-11.94 20.05 -11.94 20.05 -9.2 20.12 C-7.83 20.14 -7.83 20.14 -6.44 20.17 C-5.74 20.2 -5.04 20.22 -4.32 20.24 C-4.35 18.97 -4.37 17.69 -4.39 16.38 C-4.41 14.71 -4.43 13.04 -4.45 11.37 C-4.46 10.53 -4.48 9.68 -4.5 8.82 C-4.5 8.01 -4.51 7.21 -4.52 6.38 C-4.53 5.63 -4.54 4.89 -4.55 4.12 C-4.18 1.08 -2.95 0.31 0 0 Z " fill="#0E0C0F" transform="translate(1029.322509765625,495.757080078125)"/>
<path d="M0 0 C0.88 -0 1.76 -0.01 2.67 -0.01 C4.81 0.12 4.81 0.12 5.81 1.12 C5.9 2.91 5.92 4.69 5.91 6.47 C5.91 7.55 5.9 8.63 5.9 9.74 C5.89 11.45 5.89 11.45 5.88 13.19 C5.87 14.33 5.87 15.47 5.86 16.64 C5.85 19.47 5.83 22.3 5.81 25.12 C4.83 25.21 3.86 25.3 2.85 25.39 C-6.87 26.43 -14.54 28.01 -21.5 35.31 C-29.08 45.48 -28.84 56.09 -28.94 68.25 C-28.97 69.99 -29 71.72 -29.03 73.46 C-29.1 77.68 -29.15 81.9 -29.19 86.12 C-33.33 86.15 -37.48 86.17 -41.62 86.19 C-43.4 86.2 -43.4 86.2 -45.21 86.21 C-46.34 86.22 -47.46 86.22 -48.62 86.22 C-50.18 86.23 -50.18 86.23 -51.78 86.24 C-54.19 86.12 -54.19 86.12 -55.19 85.12 C-55.29 82.58 -55.33 80.06 -55.33 77.52 C-55.34 76.72 -55.34 75.92 -55.34 75.1 C-55.35 72.45 -55.35 69.81 -55.36 67.16 C-55.36 65.33 -55.36 63.5 -55.37 61.66 C-55.37 57.82 -55.37 53.97 -55.37 50.13 C-55.37 45.19 -55.39 40.25 -55.4 35.31 C-55.41 31.53 -55.42 27.74 -55.42 23.95 C-55.42 22.13 -55.42 20.31 -55.43 18.49 C-55.44 15.95 -55.44 13.41 -55.43 10.86 C-55.44 10.11 -55.44 9.35 -55.45 8.57 C-55.42 3.35 -55.42 3.35 -53.19 1.12 C-50.86 0.88 -50.86 0.88 -48 0.89 C-46.97 0.9 -45.94 0.9 -44.88 0.9 C-43.81 0.91 -42.73 0.92 -41.62 0.94 C-40.55 0.94 -39.47 0.94 -38.35 0.94 C-30.33 0.98 -30.33 0.98 -29.19 2.12 C-28.98 4.27 -28.82 6.41 -28.69 8.56 C-28.55 13 -28.55 13 -27.19 17.12 C-26.63 16.24 -26.07 15.35 -25.5 14.44 C-20.99 7.76 -14.95 2.99 -7.23 0.49 C-4.79 0.05 -2.48 -0.01 0 0 Z " fill="#0E0C0F" transform="translate(821.1875,514.875)"/>
<path d="M0 0 C0.95 0.01 1.91 0.02 2.89 0.03 C4.44 0.04 4.44 0.04 6.01 0.05 C7.63 0.08 7.63 0.08 9.29 0.1 C10.37 0.11 11.46 0.12 12.58 0.13 C15.28 0.15 17.97 0.19 20.66 0.23 C21.86 2.63 21.78 4.11 21.78 6.8 C21.78 7.76 21.78 8.72 21.79 9.71 C21.78 10.77 21.78 11.83 21.78 12.92 C21.78 14.03 21.78 15.14 21.78 16.29 C21.77 19.98 21.77 23.67 21.76 27.36 C21.76 29.91 21.76 32.47 21.75 35.02 C21.75 41.06 21.74 47.1 21.73 53.14 C21.72 60.02 21.72 66.9 21.71 73.78 C21.7 87.93 21.68 102.08 21.66 116.23 C17.52 116.26 13.37 116.27 9.22 116.29 C7.45 116.3 7.45 116.3 5.64 116.31 C4.51 116.32 3.39 116.32 2.23 116.32 C0.66 116.33 0.66 116.33 -0.93 116.34 C-3.34 116.23 -3.34 116.23 -4.34 115.23 C-4.44 113.76 -4.47 112.3 -4.47 110.83 C-4.48 109.88 -4.48 108.93 -4.49 107.95 C-4.48 106.9 -4.48 105.85 -4.48 104.77 C-4.49 103.67 -4.49 102.57 -4.49 101.44 C-4.5 97.79 -4.51 94.13 -4.51 90.48 C-4.51 87.95 -4.51 85.43 -4.52 82.9 C-4.52 77.59 -4.52 72.29 -4.52 66.98 C-4.52 60.84 -4.53 54.71 -4.55 48.57 C-4.56 42.67 -4.57 36.77 -4.57 30.87 C-4.57 28.36 -4.57 25.85 -4.58 23.34 C-4.59 19.83 -4.59 16.32 -4.58 12.81 C-4.59 11.76 -4.59 10.72 -4.6 9.64 C-4.59 8.68 -4.59 7.73 -4.59 6.75 C-4.59 5.92 -4.59 5.09 -4.59 4.24 C-4.2 1.12 -3.06 0.3 0 0 Z " fill="#0E0C0F" transform="translate(437.33837890625,484.77294921875)"/>
<path d="M0 0 C0.84 0.01 1.68 0.01 2.54 0.02 C3.83 0.02 3.83 0.02 5.15 0.02 C6.97 0.03 8.79 0.03 10.61 0.05 C13.41 0.06 16.2 0.07 19 0.07 C20.76 0.07 22.53 0.08 24.29 0.08 C25.14 0.09 25.98 0.09 26.84 0.09 C32.74 0.14 32.74 0.14 33.85 1.25 C33.94 4.28 33.97 7.29 33.95 10.32 C33.95 11.23 33.95 12.14 33.95 13.07 C33.94 15.99 33.93 18.9 33.92 21.81 C33.91 23.79 33.91 25.76 33.9 27.73 C33.89 32.57 33.87 37.41 33.85 42.25 C28.03 42.28 22.21 42.3 16.39 42.31 C14.41 42.31 12.43 42.32 10.45 42.33 C7.6 42.34 4.76 42.35 1.92 42.35 C0.58 42.36 0.58 42.36 -0.78 42.37 C-2.9 42.37 -5.03 42.31 -7.15 42.25 C-9.24 40.16 -8.31 35.59 -8.32 32.69 C-8.32 31.83 -8.32 30.97 -8.33 30.09 C-8.33 28.27 -8.33 26.45 -8.33 24.62 C-8.33 21.83 -8.35 19.04 -8.37 16.24 C-8.37 14.48 -8.38 12.71 -8.38 10.94 C-8.38 10.1 -8.39 9.26 -8.4 8.4 C-8.37 1.14 -7.25 0.03 0 0 Z " fill="#FBFDFD" transform="translate(743.1471099853516,313.7477569580078)"/>
<path d="M0 0 C0.84 0.01 1.68 0.01 2.54 0.02 C3.83 0.02 3.83 0.02 5.15 0.02 C6.97 0.03 8.79 0.03 10.61 0.05 C13.41 0.06 16.2 0.07 19 0.07 C20.76 0.07 22.53 0.08 24.29 0.08 C25.14 0.09 25.98 0.09 26.84 0.09 C32.74 0.14 32.74 0.14 33.85 1.25 C33.94 4.28 33.97 7.29 33.95 10.32 C33.95 11.23 33.95 12.14 33.95 13.07 C33.94 15.99 33.93 18.9 33.92 21.81 C33.91 23.79 33.91 25.76 33.9 27.73 C33.89 32.57 33.87 37.41 33.85 42.25 C28.03 42.28 22.21 42.3 16.39 42.31 C14.41 42.31 12.43 42.32 10.45 42.33 C7.6 42.34 4.76 42.35 1.92 42.35 C0.58 42.36 0.58 42.36 -0.78 42.37 C-2.9 42.37 -5.03 42.31 -7.15 42.25 C-9.24 40.16 -8.31 35.59 -8.32 32.69 C-8.32 31.83 -8.32 30.97 -8.33 30.09 C-8.33 28.27 -8.33 26.45 -8.33 24.62 C-8.33 21.83 -8.35 19.04 -8.37 16.24 C-8.37 14.48 -8.38 12.71 -8.38 10.94 C-8.38 10.1 -8.39 9.26 -8.4 8.4 C-8.37 1.14 -7.25 0.03 0 0 Z " fill="#FBFDFD" transform="translate(604.1471099853516,313.7477569580078)"/>
<path d="M0 0 C0.84 0.01 1.68 0.01 2.54 0.02 C3.83 0.02 3.83 0.02 5.15 0.02 C6.97 0.03 8.79 0.03 10.61 0.05 C13.41 0.06 16.2 0.07 19 0.07 C20.76 0.07 22.53 0.08 24.29 0.08 C25.14 0.09 25.98 0.09 26.84 0.09 C32.74 0.14 32.74 0.14 33.85 1.25 C33.94 4.28 33.97 7.29 33.95 10.32 C33.95 11.23 33.95 12.14 33.95 13.07 C33.94 15.99 33.93 18.9 33.92 21.81 C33.91 23.79 33.91 25.76 33.9 27.73 C33.89 32.57 33.87 37.41 33.85 42.25 C28.03 42.28 22.21 42.3 16.39 42.31 C14.41 42.31 12.43 42.32 10.45 42.33 C7.6 42.34 4.76 42.35 1.92 42.35 C0.58 42.36 0.58 42.36 -0.78 42.37 C-2.9 42.37 -5.03 42.31 -7.15 42.25 C-9.24 40.16 -8.31 35.59 -8.32 32.69 C-8.32 31.83 -8.32 30.97 -8.33 30.09 C-8.33 28.27 -8.33 26.45 -8.33 24.62 C-8.33 21.83 -8.35 19.04 -8.37 16.24 C-8.37 14.48 -8.38 12.71 -8.38 10.94 C-8.38 10.1 -8.39 9.26 -8.4 8.4 C-8.37 1.14 -7.25 0.03 0 0 Z " fill="#FBFDFD" transform="translate(534.1471099853516,313.7477569580078)"/>
<path d="M0 0 C0.84 0.01 1.68 0.01 2.54 0.02 C3.83 0.02 3.83 0.02 5.15 0.02 C6.97 0.03 8.79 0.03 10.61 0.05 C13.41 0.06 16.2 0.07 19 0.07 C20.76 0.07 22.53 0.08 24.29 0.08 C25.14 0.09 25.98 0.09 26.84 0.09 C32.74 0.14 32.74 0.14 33.85 1.25 C33.94 4.28 33.97 7.29 33.95 10.32 C33.95 11.23 33.95 12.14 33.95 13.07 C33.94 15.99 33.93 18.9 33.92 21.81 C33.91 23.79 33.91 25.76 33.9 27.73 C33.89 32.57 33.87 37.41 33.85 42.25 C28.03 42.28 22.21 42.3 16.39 42.31 C14.41 42.31 12.43 42.32 10.45 42.33 C7.6 42.34 4.76 42.35 1.92 42.35 C0.58 42.36 0.58 42.36 -0.78 42.37 C-2.9 42.37 -5.03 42.31 -7.15 42.25 C-9.24 40.16 -8.31 35.59 -8.32 32.69 C-8.32 31.83 -8.32 30.97 -8.33 30.09 C-8.33 28.27 -8.33 26.45 -8.33 24.62 C-8.33 21.83 -8.35 19.04 -8.37 16.24 C-8.37 14.48 -8.38 12.71 -8.38 10.94 C-8.38 10.1 -8.39 9.26 -8.4 8.4 C-8.37 1.14 -7.25 0.03 0 0 Z " fill="#FBFDFD" transform="translate(743.1471099853516,243.7477569580078)"/>
<path d="M0 0 C0.84 0.01 1.68 0.01 2.54 0.02 C3.83 0.02 3.83 0.02 5.15 0.02 C6.97 0.03 8.79 0.03 10.61 0.05 C13.41 0.06 16.2 0.07 19 0.07 C20.76 0.07 22.53 0.08 24.29 0.08 C25.14 0.09 25.98 0.09 26.84 0.09 C32.74 0.14 32.74 0.14 33.85 1.25 C33.94 4.28 33.97 7.29 33.95 10.32 C33.95 11.23 33.95 12.14 33.95 13.07 C33.94 15.99 33.93 18.9 33.92 21.81 C33.91 23.79 33.91 25.76 33.9 27.73 C33.89 32.57 33.87 37.41 33.85 42.25 C28.03 42.28 22.21 42.3 16.39 42.31 C14.41 42.31 12.43 42.32 10.45 42.33 C7.6 42.34 4.76 42.35 1.92 42.35 C0.58 42.36 0.58 42.36 -0.78 42.37 C-2.9 42.37 -5.03 42.31 -7.15 42.25 C-9.24 40.16 -8.31 35.59 -8.32 32.69 C-8.32 31.83 -8.32 30.97 -8.33 30.09 C-8.33 28.27 -8.33 26.45 -8.33 24.62 C-8.33 21.83 -8.35 19.04 -8.37 16.24 C-8.37 14.48 -8.38 12.71 -8.38 10.94 C-8.38 10.1 -8.39 9.26 -8.4 8.4 C-8.37 1.14 -7.25 0.03 0 0 Z " fill="#FBFDFD" transform="translate(604.1471099853516,243.7477569580078)"/>
<path d="M0 0 C0.84 0.01 1.68 0.01 2.54 0.02 C3.83 0.02 3.83 0.02 5.15 0.02 C6.97 0.03 8.79 0.03 10.61 0.05 C13.41 0.06 16.2 0.07 19 0.07 C20.76 0.07 22.53 0.08 24.29 0.08 C25.14 0.09 25.98 0.09 26.84 0.09 C32.74 0.14 32.74 0.14 33.85 1.25 C33.94 4.28 33.97 7.29 33.95 10.32 C33.95 11.23 33.95 12.14 33.95 13.07 C33.94 15.99 33.93 18.9 33.92 21.81 C33.91 23.79 33.91 25.76 33.9 27.73 C33.89 32.57 33.87 37.41 33.85 42.25 C28.03 42.28 22.21 42.3 16.39 42.31 C14.41 42.31 12.43 42.32 10.45 42.33 C7.6 42.34 4.76 42.35 1.92 42.35 C0.58 42.36 0.58 42.36 -0.78 42.37 C-2.9 42.37 -5.03 42.31 -7.15 42.25 C-9.24 40.16 -8.31 35.59 -8.32 32.69 C-8.32 31.83 -8.32 30.97 -8.33 30.09 C-8.33 28.27 -8.33 26.45 -8.33 24.62 C-8.33 21.83 -8.35 19.04 -8.37 16.24 C-8.37 14.48 -8.38 12.71 -8.38 10.94 C-8.38 10.1 -8.39 9.26 -8.4 8.4 C-8.37 1.14 -7.25 0.03 0 0 Z " fill="#FBFDFD" transform="translate(534.1471099853516,243.7477569580078)"/>
<path d="M0 0 C5.68 -0.02 11.36 -0.04 17.03 -0.05 C18.97 -0.06 20.9 -0.07 22.83 -0.08 C25.61 -0.09 28.38 -0.09 31.15 -0.1 C32.46 -0.11 32.46 -0.11 33.79 -0.11 C35.86 -0.11 37.93 -0.06 40 0 C41 1 41 1 41.11 4.88 C41.11 6.61 41.11 8.34 41.1 10.07 C41.1 10.87 41.1 11.68 41.09 12.51 C41.09 15.52 41.08 18.54 41.06 21.56 C41.04 28.31 41.02 35.05 41 42 C27.47 42 13.94 42 0 42 C-1.63 38.74 -1.14 35.15 -1.13 31.56 C-1.13 30.73 -1.13 29.89 -1.14 29.03 C-1.14 27.26 -1.13 25.49 -1.13 23.72 C-1.13 21.01 -1.13 18.3 -1.14 15.59 C-1.14 13.87 -1.13 12.15 -1.13 10.44 C-1.13 9.62 -1.14 8.81 -1.14 7.97 C-1.11 2.23 -1.11 2.23 0 0 Z " fill="#FBFDFD" transform="translate(736,175)"/>
<path d="M0 0 C5.68 -0.02 11.36 -0.04 17.03 -0.05 C18.97 -0.06 20.9 -0.07 22.83 -0.08 C25.61 -0.09 28.38 -0.09 31.15 -0.1 C32.46 -0.11 32.46 -0.11 33.79 -0.11 C35.86 -0.11 37.93 -0.06 40 0 C41 1 41 1 41.11 4.88 C41.11 6.61 41.11 8.34 41.1 10.07 C41.1 10.98 41.09 11.88 41.09 12.82 C41.09 15.73 41.08 18.65 41.06 21.56 C41.06 23.53 41.05 25.5 41.05 27.47 C41.04 32.32 41.02 37.16 41 42 C35.34 42.05 29.68 42.09 24.02 42.11 C22.09 42.12 20.17 42.13 18.24 42.15 C15.48 42.18 12.71 42.19 9.95 42.2 C9.08 42.21 8.22 42.22 7.33 42.23 C5.22 42.23 3.11 42.12 1 42 C-1.61 39.39 -1.24 37.58 -1.25 34.03 C-1.25 33.22 -1.24 32.4 -1.23 31.56 C-1.23 30.73 -1.23 29.89 -1.23 29.03 C-1.23 27.26 -1.22 25.49 -1.21 23.72 C-1.19 21.01 -1.19 18.3 -1.19 15.59 C-1.18 13.87 -1.17 12.15 -1.17 10.44 C-1.17 9.62 -1.17 8.81 -1.16 7.97 C-1.12 2.23 -1.12 2.23 0 0 Z " fill="#FBFDFD" transform="translate(597,175)"/>
<path d="M0 0 C5.68 -0.02 11.36 -0.04 17.03 -0.05 C18.97 -0.06 20.9 -0.07 22.83 -0.08 C25.61 -0.09 28.38 -0.09 31.15 -0.1 C32.46 -0.11 32.46 -0.11 33.79 -0.11 C35.86 -0.11 37.93 -0.06 40 0 C41 1 41 1 41.11 4.88 C41.11 6.61 41.11 8.34 41.1 10.07 C41.1 10.98 41.09 11.88 41.09 12.82 C41.09 15.73 41.08 18.65 41.06 21.56 C41.06 23.53 41.05 25.5 41.05 27.47 C41.04 32.32 41.02 37.16 41 42 C35.34 42.05 29.68 42.09 24.02 42.11 C22.09 42.12 20.17 42.13 18.24 42.15 C15.48 42.18 12.71 42.19 9.95 42.2 C9.08 42.21 8.22 42.22 7.33 42.23 C5.22 42.23 3.11 42.12 1 42 C-1.61 39.39 -1.24 37.58 -1.25 34.03 C-1.25 33.22 -1.24 32.4 -1.23 31.56 C-1.23 30.73 -1.23 29.89 -1.23 29.03 C-1.23 27.26 -1.22 25.49 -1.21 23.72 C-1.19 21.01 -1.19 18.3 -1.19 15.59 C-1.18 13.87 -1.17 12.15 -1.17 10.44 C-1.17 9.62 -1.17 8.81 -1.16 7.97 C-1.12 2.23 -1.12 2.23 0 0 Z " fill="#FBFDFD" transform="translate(527,175)"/>
<path d="M0 0 C0.84 0 1.69 0 2.56 0.01 C3.42 0.01 4.28 0 5.17 0 C7 0 8.82 0 10.65 0.01 C13.45 0.01 16.26 0.01 19.06 0 C20.83 0 22.6 0 24.37 0.01 C25.22 0 26.06 0 26.93 0 C32.85 0.02 32.85 0.02 33.97 1.14 C34.05 4.17 34.08 7.18 34.06 10.21 C34.06 11.11 34.06 12.02 34.06 12.96 C34.05 15.87 34.04 18.79 34.03 21.7 C34.02 23.67 34.02 25.64 34.02 27.61 C34 32.46 33.99 37.3 33.97 42.14 C28.29 42.16 22.61 42.18 16.93 42.19 C15 42.2 13.06 42.21 11.13 42.21 C8.36 42.23 5.59 42.23 2.81 42.24 C1.51 42.24 1.51 42.24 0.18 42.25 C-1.89 42.25 -3.96 42.2 -6.03 42.14 C-7.93 40.24 -7.16 37.48 -7.17 34.95 C-7.17 34.09 -7.17 33.22 -7.17 32.33 C-7.17 31.44 -7.17 30.56 -7.17 29.65 C-7.17 27.77 -7.17 25.9 -7.16 24.03 C-7.16 21.15 -7.16 18.27 -7.17 15.4 C-7.17 13.58 -7.17 11.77 -7.17 9.95 C-7.17 9.08 -7.17 8.22 -7.17 7.33 C-7.14 0.25 -7.09 0.03 0 0 Z " fill="#FBFDFD" transform="translate(673.0338134765625,313.8610534667969)"/>
<path d="M0 0 C0.84 0 1.69 0 2.56 0.01 C3.42 0.01 4.28 0 5.17 0 C7 0 8.82 0 10.65 0.01 C13.45 0.01 16.26 0.01 19.06 0 C20.83 0 22.6 0 24.37 0.01 C25.22 0 26.06 0 26.93 0 C32.85 0.02 32.85 0.02 33.97 1.14 C34.05 4.17 34.08 7.18 34.06 10.21 C34.06 11.11 34.06 12.02 34.06 12.96 C34.05 15.87 34.04 18.79 34.03 21.7 C34.02 23.67 34.02 25.64 34.02 27.61 C34 32.46 33.99 37.3 33.97 42.14 C28.29 42.16 22.61 42.18 16.93 42.19 C15 42.2 13.06 42.21 11.13 42.21 C8.36 42.23 5.59 42.23 2.81 42.24 C1.51 42.24 1.51 42.24 0.18 42.25 C-1.89 42.25 -3.96 42.2 -6.03 42.14 C-7.93 40.24 -7.16 37.48 -7.17 34.95 C-7.17 34.09 -7.17 33.22 -7.17 32.33 C-7.17 31.44 -7.17 30.56 -7.17 29.65 C-7.17 27.77 -7.17 25.9 -7.16 24.03 C-7.16 21.15 -7.16 18.27 -7.17 15.4 C-7.17 13.58 -7.17 11.77 -7.17 9.95 C-7.17 9.08 -7.17 8.22 -7.17 7.33 C-7.14 0.25 -7.09 0.03 0 0 Z " fill="#FBFDFD" transform="translate(673.0338134765625,243.86105346679688)"/>
<path d="M0 0 C5.68 -0.02 11.36 -0.04 17.03 -0.05 C18.97 -0.06 20.9 -0.07 22.83 -0.08 C25.61 -0.09 28.38 -0.09 31.15 -0.1 C32.46 -0.11 32.46 -0.11 33.79 -0.11 C35.86 -0.11 37.93 -0.06 40 0 C41 1 41 1 41.11 4.88 C41.11 6.61 41.11 8.34 41.1 10.07 C41.1 10.98 41.09 11.88 41.09 12.82 C41.09 15.73 41.08 18.65 41.06 21.56 C41.06 23.53 41.05 25.5 41.05 27.47 C41.04 32.32 41.02 37.16 41 42 C27.8 42 14.6 42 1 42 C-0.69 38.62 -0.12 34.78 -0.1 31.05 C-0.1 30.17 -0.09 29.28 -0.09 28.37 C-0.09 25.54 -0.08 22.71 -0.06 19.88 C-0.06 17.96 -0.05 16.04 -0.05 14.12 C-0.04 9.41 -0.02 4.71 0 0 Z " fill="#FBFDFD" transform="translate(666,175)"/>
<path d="M0 0 C0.74 0.78 1.49 1.57 2.25 2.38 C2.72 2.86 3.18 3.35 3.66 3.85 C8.83 10.38 8.12 18.52 7.25 26.38 C5.78 31.74 2.95 35.36 -1.75 38.38 C-7.64 40.34 -14.49 40.39 -20.43 38.54 C-25.96 35.76 -29.24 32.01 -31.75 26.38 C-34.16 18.21 -32.61 12.48 -28.66 5.09 C-25.07 -0.02 -20.54 -1.75 -14.75 -3.56 C-9.38 -3.67 -4.65 -2.75 0 0 Z " fill="#FBFDFD" transform="translate(895.75,540.625)"/>
<path d="M0 0 C5.07 4.01 8.98 9.56 10 16 C10.22 23.59 9.68 29.9 5 36 C-0.53 41.12 -5.31 41.46 -12.63 41.41 C-19.06 40.62 -22.94 37 -27.44 32.62 C-30.57 27.36 -31.57 22.06 -30.54 16.01 C-29.05 10.43 -26.57 5.54 -21.82 2.04 C-14.86 -1.93 -7.48 -3.38 0 0 Z " fill="#FBFDFD" transform="translate(382,539)"/>
<path d="M0 0 C2.55 0.97 3.95 1.94 5.75 4 C7.58 8.39 7.92 12.32 7 17 C4.72 20.98 2.37 23.54 -2 25 C-7.31 25.83 -11.02 25.45 -15.44 22.25 C-19.02 19.39 -20.71 16.8 -21.44 12.25 C-20.84 7.85 -18.98 4.31 -16 1 C-15.01 1 -14.02 1 -13 1 C-13.08 1.93 -13.16 2.86 -13.25 3.81 C-13.32 7.01 -13.32 7.01 -11.38 8.88 C-8.37 10.3 -6.28 10.36 -3 10 C-0.7 7.7 -0.68 6.99 -0.38 3.88 C-0.25 2.6 -0.13 1.32 0 0 Z " fill="#FAFCFC" transform="translate(589,80)"/>
<path d="M0 0 C0.99 0 1.98 0 3 0 C6.66 5.35 8.86 9.44 7.65 15.99 C6.44 19.73 4.5 22.12 1.12 24.1 C-2.61 25.68 -6.03 25.74 -10 25 C-13.33 23.39 -16.27 21.5 -19 19 C-20.48 14.57 -20.97 10.26 -19.11 5.92 C-18.14 4.24 -17.08 2.61 -16 1 C-12.79 2.6 -12.37 5.8 -11 9 C-8.71 10.14 -7.41 10.1 -4.88 10.06 C-2.96 10.03 -2.96 10.03 -1 10 C-0.67 6.7 -0.34 3.4 0 0 Z " fill="#FAFCFC" transform="translate(728,80)"/>
<path d="M0 0 C4.22 2.35 6.31 5.32 8.75 9.44 C8.75 10.1 8.75 10.76 8.75 11.44 C-2.47 11.44 -13.69 11.44 -25.25 11.44 C-25.58 10.45 -25.91 9.46 -26.25 8.44 C-20.85 -1.15 -9.89 -4.32 0 0 Z " fill="#FAFCFC" transform="translate(527.25,538.5625)"/>
</svg>
